<?xml version="1.0" standalone="no"?>
<!DOCTYPE svg PUBLIC "-//W3C//DTD SVG 20010904//EN"
 "http://www.w3.org/TR/2001/REC-SVG-20010904/DTD/svg10.dtd">
<svg version="1.0" xmlns="http://www.w3.org/2000/svg"
 width="225.000000pt" height="224.000000pt" viewBox="0 0 225.000000 224.000000"
 preserveAspectRatio="xMidYMid meet">

<g transform="translate(0.000000,224.000000) scale(0.100000,-0.100000)"
fill="#000000" stroke="none">
<path d="M1196 2132 c-57 -111 8 -270 137 -336 48 -24 69 -29 130 -29 81 0
129 17 167 59 22 24 22 26 5 20 -122 -47 -235 -22 -334 74 -54 52 -82 115 -84
186 -1 30 -2 54 -4 54 -1 0 -9 -13 -17 -28z"/>
<path d="M930 2053 c-37 -57 -45 -96 -44 -194 1 -100 39 -185 121 -270 105
-110 220 -156 368 -146 128 7 233 62 295 152 40 58 38 64 -7 25 -45 -40 -104
-67 -173 -80 -171 -32 -415 98 -493 262 -34 72 -51 180 -39 247 5 28 8 51 5
51 -2 0 -17 -21 -33 -47z"/>
<path d="M617 1948 c-197 -290 2 -733 382 -855 75 -24 254 -28 331 -8 127 33
267 132 319 226 l25 44 -39 -34 c-80 -69 -205 -111 -335 -111 -147 0 -261 39
-396 135 -194 138 -286 345 -255 569 6 44 10 81 8 83 -3 2 -20 -20 -40 -49z"/>
</g>
</svg>
