<?xml version="1.0" standalone="no"?>
<!DOCTYPE svg PUBLIC "-//W3C//DTD SVG 20010904//EN"
 "http://www.w3.org/TR/2001/REC-SVG-20010904/DTD/svg10.dtd">
<svg  version="1.0" xmlns="http://www.w3.org/2000/svg"
 width="225.000000pt"  height="225.000000pt" viewBox="0 0 225.000000 225.000000"
 preserveAspectRatio="xMidYMid meet">

<g transform="translate(0.000000,225.000000) scale(0.100000,-0.100000)"
  stroke="none">
<path d="M1214 2133 c-77 -156 11 -356 193 -441 48 -22 72 -26 143 -27 73 0
93 4 142 28 34 17 70 45 90 69 l32 41 -44 -29 c-41 -27 -50 -29 -144 -29 -92
0 -106 3 -166 31 -79 38 -151 109 -188 184 -23 47 -27 68 -27 143 0 48 -1 87
-2 87 -1 0 -14 -26 -29 -57z"/>
<path d="M892 2057 c-23 -34 -48 -82 -56 -105 -102 -289 142 -647 473 -694
224 -31 437 62 530 233 l25 44 -48 -44 c-192 -174 -532 -144 -743 68 -67 67
-126 162 -151 241 -23 73 -22 230 0 283 10 20 15 37 14 37 -2 0 -22 -28 -44
-63z"/>
<path d="M502 1925 c-87 -111 -122 -214 -122 -356 0 -319 235 -632 558 -745
135 -47 335 -50 481 -9 125 36 258 131 338 239 68 93 69 101 6 50 -64 -53
-169 -104 -253 -125 -77 -20 -277 -17 -365 4 -98 24 -258 105 -337 171 -140
116 -249 286 -283 441 -21 93 -17 265 8 335 9 24 15 45 14 47 -2 1 -22 -22
-45 -52z"/>
<path d="M575 641 c-85 -22 -131 -69 -164 -168 -37 -110 -22 -194 41 -233 29
-18 50 -20 179 -20 l147 0 6 31 c9 46 8 49 -15 49 -15 0 -19 5 -15 15 64 169
56 257 -31 307 -35 21 -106 30 -148 19z m105 -101 c26 -26 26 -72 -2 -166
l-21 -74 -62 0 c-52 0 -65 4 -85 25 -20 21 -22 31 -17 78 6 65 37 129 69 144
38 19 96 15 118 -7z"/>
<path d="M1957 500 c-37 -55 -72 -100 -77 -100 -5 0 -10 10 -12 23 -3 19 -10
22 -50 25 -27 2 -48 0 -48 -4 0 -4 9 -38 21 -76 11 -38 18 -77 15 -86 -2 -9
-7 -27 -11 -39 -6 -22 -3 -23 43 -23 49 0 50 0 59 38 6 24 52 94 115 178 57
76 108 145 112 152 5 9 -6 12 -46 12 l-53 0 -68 -100z"/>
<path d="M287 553 c-3 -5 -8 -23 -12 -40 l-7 -33 45 0 c38 0 46 3 51 23 13 49
8 57 -33 57 -22 0 -42 -3 -44 -7z"/>
<path d="M1284 541 c-23 -10 -51 -32 -63 -49 -31 -45 -56 -154 -45 -199 15
-59 46 -74 164 -80 113 -7 120 -4 120 55 l0 32 -89 0 c-92 0 -120 12 -107 45
4 12 26 15 114 15 l110 0 6 31 c9 47 7 98 -5 121 -25 47 -132 62 -205 29z
m114 -73 c7 -7 12 -20 12 -30 0 -15 -9 -18 -65 -18 -50 0 -65 3 -65 14 0 36
90 62 118 34z"/>
<path d="M875 538 c-13 -39 -37 -186 -37 -226 0 -38 5 -51 27 -69 23 -21 36
-23 129 -23 99 0 104 1 109 23 4 12 18 78 32 147 14 69 28 133 31 143 5 14 -1
17 -38 17 l-44 0 -25 -122 -25 -123 -45 -3 c-70 -5 -75 7 -50 129 12 56 21
106 21 110 0 14 -80 11 -85 -3z"/>
<path d="M1580 545 c0 -6 -60 -287 -66 -307 -5 -15 1 -18 39 -18 l44 0 22 108
c12 59 25 115 27 124 4 15 21 18 107 20 l102 3 -3 25 c-7 47 -17 50 -148 50
-68 0 -124 -2 -124 -5z"/>
<path d="M256 433 c-2 -10 -14 -63 -26 -118 -28 -123 -43 -155 -74 -155 -19 0
-25 -8 -34 -40 l-10 -40 52 0 c58 0 88 16 111 60 11 22 75 281 75 305 0 3 -20
5 -44 5 -34 0 -46 -4 -50 -17z"/>
</g>
</svg>
