<?xml version="1.0" standalone="no"?>
<!DOCTYPE svg PUBLIC "-//W3C//DTD SVG 20010904//EN"
 "http://www.w3.org/TR/2001/REC-SVG-20010904/DTD/svg10.dtd">
<svg version="1.0" xmlns="http://www.w3.org/2000/svg"
 width="114.000000pt" height="130.000000pt" viewBox="0 0 114.000000 130.000000"
 preserveAspectRatio="xMidYMid meet">

<g transform="translate(0.000000,130.000000) scale(0.100000,-0.100000)"
fill="#000000" stroke="none">
<path d="M793 1082 c-6 -163 -43 -947 -48 -1009 l-6 -71 63 14 c35 9 106 24
158 35 52 11 112 24 134 30 l38 10 -7 42 c-8 50 -54 362 -89 612 -14 99 -31
208 -37 241 l-11 61 -55 6 c-48 5 -62 12 -97 46 l-41 40 -2 -57z"/>
</g>
</svg>
